<?xml version="1.0" standalone="no"?>
<!DOCTYPE svg PUBLIC "-//W3C//DTD SVG 20010904//EN"
 "http://www.w3.org/TR/2001/REC-SVG-20010904/DTD/svg10.dtd">
<svg version="1.0" xmlns="http://www.w3.org/2000/svg"
 width="1280.000000pt" height="768.000000pt" viewBox="0 0 1280.000000 768.000000"
 preserveAspectRatio="xMidYMid meet">
<metadata>
Created by potrace 1.15, written by Peter Selinger 2001-2017
</metadata>
<g transform="translate(0.000000,768.000000) scale(0.100000,-0.100000)"
fill="#000000" stroke="none">
<path d="M9045 7671 c-4 -7 -5 -14 -4 -15 2 -2 55 -18 118 -35 123 -34 273
-94 292 -117 6 -8 19 -14 29 -14 9 0 58 -30 108 -66 103 -74 196 -177 242
-268 16 -33 39 -65 50 -73 52 -37 100 -362 101 -693 0 -119 -1 -125 -34 -200
-11 -26 -22 -76 -25 -118 -6 -87 -3 -92 115 -168 106 -68 122 -98 88 -164 -18
-35 -48 -39 -115 -15 -58 20 -106 19 -160 -6 -105 -48 -272 -100 -380 -118
-36 -6 -104 -27 -150 -46 -99 -40 -98 -40 -160 -18 -40 14 -51 15 -64 4 -24
-20 -20 -39 20 -96 l35 -52 -15 -83 c-19 -99 -22 -411 -5 -572 6 -59 8 -119 5
-133 -17 -66 -150 -165 -223 -165 -34 0 -73 -29 -73 -54 0 -7 10 -20 22 -28
26 -18 18 -34 -22 -43 -17 -4 -35 -16 -41 -27 -8 -14 -13 -17 -18 -9 -16 26
-189 -65 -267 -141 -39 -38 -46 -40 -115 -45 -86 -6 -167 -31 -215 -68 -60
-46 -68 -68 -72 -186 -5 -121 2 -142 53 -163 22 -10 39 -26 48 -48 18 -42 112
-130 135 -126 14 3 18 18 22 82 6 95 10 99 157 156 135 53 208 68 368 76 172
8 250 -4 288 -47 19 -20 27 -39 25 -57 -4 -34 -48 -46 -142 -39 -56 4 -72 9
-86 27 -14 19 -18 20 -29 6 -16 -20 -96 -36 -179 -36 -101 0 -143 -29 -103
-69 25 -25 26 -51 5 -94 -27 -53 -52 -79 -111 -118 -97 -64 -119 -127 -63
-179 35 -33 38 -63 8 -84 -18 -13 -22 -28 -26 -96 -2 -44 -9 -83 -13 -86 -5
-3 -33 7 -61 23 -44 23 -54 34 -61 64 -15 64 -38 77 -261 144 -65 19 -121 33
-124 31 -10 -10 65 -90 350 -372 161 -160 312 -303 336 -318 30 -19 70 -31
130 -41 48 -7 100 -18 115 -24 36 -14 106 -14 232 0 115 13 152 7 228 -42 l49
-30 -36 -44 c-59 -71 -146 -292 -162 -408 -9 -66 6 -79 144 -122 141 -45 181
-64 216 -106 37 -43 73 -117 81 -165 11 -63 40 -133 119 -293 81 -160 151
-312 197 -426 l29 -70 -51 55 c-58 65 -163 191 -286 346 -48 62 -165 199 -258
305 -94 107 -227 259 -295 339 -265 308 -753 852 -891 990 -79 80 -193 186
-253 235 -61 50 -163 135 -229 190 -182 154 -210 175 -234 175 -26 0 -58 -40
-101 -126 -40 -79 -92 -124 -238 -206 -239 -133 -288 -164 -329 -205 -38 -37
-51 -43 -121 -57 -137 -26 -423 -49 -594 -49 -160 0 -169 1 -290 37 -164 48
-269 55 -816 57 -486 1 -484 1 -635 -77 -108 -56 -321 -197 -409 -271 -156
-131 -306 -336 -350 -478 -44 -140 -45 -142 -134 -184 -100 -48 -258 -110
-299 -118 -27 -5 -30 -4 -25 15 3 11 182 301 398 644 216 343 406 650 422 683
19 41 28 76 28 111 0 41 6 59 32 95 50 69 387 403 448 443 31 20 135 69 233
110 210 88 265 119 372 205 44 36 143 114 220 174 77 60 191 154 253 208 l112
100 0 337 c0 185 -5 355 -10 377 -5 24 -21 51 -40 68 -35 31 -66 37 -55 10 14
-37 18 -130 5 -153 -12 -22 -16 -23 -91 -17 -106 8 -172 28 -311 94 -65 30
-124 53 -132 50 -30 -12 -49 -58 -51 -125 -3 -86 -2 -82 -24 -82 -28 0 -68 53
-86 112 -31 105 -11 263 40 314 34 34 73 31 174 -15 117 -53 201 -77 292 -86
l77 -7 22 93 c35 147 37 198 10 270 -27 77 -81 168 -121 208 -36 37 -112 61
-190 61 -47 0 -63 -5 -87 -25 -28 -23 -32 -24 -47 -9 -8 9 -26 37 -39 63 -29
56 -48 74 -106 100 -84 38 -186 19 -264 -50 -77 -68 -53 -88 60 -48 94 33 163
14 179 -48 8 -35 -8 -50 -66 -58 -61 -9 -109 -45 -109 -83 0 -37 8 -46 58 -71
37 -19 43 -26 38 -44 -6 -21 -17 -81 -52 -272 -31 -167 -93 -333 -133 -355
-23 -12 -71 -13 -87 -2 -27 17 -37 62 -42 184 -3 71 -8 131 -13 134 -14 8 -49
-39 -54 -75 -22 -145 -45 -189 -120 -222 -48 -22 -145 -25 -183 -5 -42 22 -62
49 -85 118 -28 81 -47 86 -75 19 -33 -80 -146 -146 -229 -134 -39 6 -42 -7
-13 -44 22 -29 25 -48 9 -58 -17 -11 -56 33 -104 117 -25 42 -54 82 -64 88
-24 12 -151 13 -151 1 0 -17 78 -79 109 -86 36 -8 79 -57 142 -165 24 -41 66
-98 94 -127 64 -65 105 -78 190 -58 88 21 105 19 163 -21 30 -19 70 -41 90
-48 28 -10 38 -20 44 -44 5 -18 11 -32 15 -32 3 0 50 20 105 45 174 80 399
125 556 111 118 -11 172 -41 172 -96 0 -38 -29 -56 -100 -63 -61 -6 -164 -44
-315 -117 -136 -66 -172 -94 -261 -207 -104 -132 -104 -133 -191 -133 -82 0
-86 3 -98 80 -10 64 -21 78 -58 82 l-32 3 3 58 c2 31 1 57 -2 57 -3 0 -28 -20
-55 -45 -57 -49 -66 -52 -228 -59 -119 -5 -180 -23 -217 -64 -19 -22 -89 -250
-80 -263 2 -4 29 -13 60 -20 61 -14 76 -27 48 -42 -38 -21 -108 -94 -184 -191
-44 -56 -114 -138 -156 -184 l-77 -82 74 -35 c41 -18 133 -53 204 -76 177 -57
183 -59 189 -74 4 -13 -18 -112 -27 -122 -11 -10 -389 66 -687 138 -378 93
-561 172 -695 300 l-79 77 66 71 c91 96 105 118 87 136 -22 22 -137 36 -313
37 -217 2 -255 -9 -346 -100 -82 -83 -317 -434 -526 -790 -559 -947 -831
-1413 -854 -1460 -16 -33 -50 -117 -75 -188 -202 -556 -204 -1090 -5 -1378
l31 -46 6310 0 6310 0 -7 23 c-46 149 -427 746 -553 867 -89 86 -193 155 -431
285 -241 133 -447 256 -653 391 -299 196 -368 257 -446 390 -26 44 -68 106
-94 137 -49 60 -93 145 -157 307 -38 95 -88 199 -146 300 -24 42 -26 51 -20
135 3 50 11 176 16 280 14 237 22 276 108 516 38 107 73 208 77 226 10 50 41
83 79 83 48 0 117 40 148 85 19 27 33 65 42 120 15 82 37 147 101 295 62 144
85 260 92 455 4 118 2 184 -7 214 -14 54 -66 109 -109 117 -43 9 -45 17 -20
66 39 77 48 172 60 638 l12 445 -72 160 c-83 186 -171 337 -249 426 -69 80
-110 113 -193 154 -36 18 -122 76 -191 128 -301 226 -523 330 -851 398 -173
35 -281 46 -292 30z m-3801 -1801 c13 -13 -1 -39 -26 -49 -30 -12 -69 -55
-102 -112 -47 -82 -86 -100 -86 -40 0 34 35 172 51 202 10 20 16 21 82 14 40
-3 76 -10 81 -15z m4728 -337 c27 -24 25 -100 -4 -131 -19 -20 -21 -25 -8 -32
36 -20 100 -71 100 -79 0 -5 -10 -6 -22 -2 -13 4 -68 21 -123 38 -55 18 -136
40 -180 50 -54 12 -80 23 -80 32 0 19 109 78 209 112 96 34 85 33 108 12z
m-396 -277 c21 -32 47 -59 63 -64 18 -6 73 -6 154 1 99 8 130 8 140 -2 16 -16
-7 -31 -50 -31 -76 0 -111 -41 -67 -77 27 -21 28 -22 10 -42 -10 -11 -16 -27
-12 -36 15 -39 109 -43 231 -9 33 10 76 18 95 18 30 1 37 -4 52 -34 52 -102
-16 -277 -120 -311 -20 -7 -49 -24 -64 -39 -31 -31 -105 -55 -139 -45 -35 11
-119 77 -161 128 -61 73 -125 180 -137 227 -6 25 -35 91 -63 146 l-51 101 21
28 c12 15 22 40 22 55 0 59 31 54 76 -14z m-549 -1103 c26 -44 26 -46 7 -60
-36 -26 -49 -13 -52 55 -3 73 4 74 45 5z m48 -152 c-9 -15 -80 -51 -101 -51
-22 0 21 35 68 54 35 15 44 14 33 -3z m-235 -20 c0 -12 -239 -113 -251 -105
-5 3 -9 9 -9 13 0 12 126 68 190 85 67 18 70 18 70 7z m90 -461 c0 -23 -36
-50 -66 -50 -12 0 -31 8 -43 18 -19 15 -20 19 -8 35 16 22 75 37 100 25 9 -5
17 -17 17 -28z m-167 -326 c3 -4 0 -22 -8 -41 -8 -20 -15 -57 -15 -82 0 -26
-6 -56 -14 -67 -14 -18 -15 -18 -25 9 -6 16 -11 55 -11 88 0 46 4 63 20 79 20
20 41 26 53 14z"/>
<path d="M7792 7170 c-60 -27 -125 -92 -293 -291 -231 -276 -273 -344 -304
-494 -40 -195 -45 -725 -10 -959 13 -82 14 -115 6 -133 -14 -31 -11 -36 55
-78 30 -19 60 -46 66 -60 14 -31 32 -32 63 -1 37 37 39 80 16 289 -66 607 -64
826 9 998 36 86 151 276 300 499 167 250 174 267 92 230z"/>
<path d="M4189 6139 c-44 -12 -84 -52 -76 -73 5 -13 26 -16 117 -16 97 0 112
-2 130 -20 34 -34 25 -56 -35 -95 -34 -21 -55 -42 -55 -53 0 -32 50 -120 87
-153 28 -24 36 -39 37 -67 1 -49 27 -54 67 -11 58 62 64 83 64 219 0 111 -3
130 -23 173 -35 70 -91 100 -196 103 -45 2 -97 -2 -117 -7z"/>
<path d="M3690 5888 c-73 -37 -60 -54 39 -50 102 3 125 -8 135 -67 3 -23 18
-67 32 -98 14 -32 31 -82 38 -112 28 -123 52 -43 44 145 -4 80 -10 121 -21
138 -42 64 -181 87 -267 44z"/>
<path d="M3510 5732 c-74 -77 -126 -149 -116 -159 8 -9 129 116 174 180 49 69
18 58 -58 -21z"/>
<path d="M7866 5710 c-51 -16 -137 -114 -152 -173 -6 -27 -5 -27 46 -27 36 0
63 7 87 21 30 19 46 21 117 17 100 -5 210 -50 226 -93 7 -18 17 -25 37 -25 55
0 6 -20 -122 -49 -129 -29 -178 -47 -265 -96 -25 -14 -54 -25 -66 -25 -32 0
-36 -11 -12 -37 15 -17 33 -23 61 -23 35 0 47 7 91 51 46 46 51 49 63 33 7
-10 13 -24 13 -31 0 -7 15 -20 33 -30 26 -15 56 -18 159 -18 69 0 130 -4 135
-8 13 -13 -27 -37 -63 -37 -17 0 -42 -8 -54 -18 -22 -18 -19 -39 12 -85 14
-19 10 -24 -38 -53 -12 -7 -15 -16 -11 -28 6 -16 15 -18 60 -13 129 16 219 65
304 169 60 73 83 124 83 186 0 51 0 51 43 70 78 35 147 136 147 217 0 76 -40
119 -53 58 -7 -32 -67 -97 -110 -119 -36 -19 -63 -13 -111 25 -27 22 -52 31
-94 36 -100 11 -199 34 -310 70 -113 38 -207 51 -256 35z"/>
<path d="M4447 5592 c-9 -23 -17 -61 -17 -83 0 -33 3 -40 17 -37 25 5 37 58
26 115 l-8 48 -18 -43z"/>
<path d="M3476 5491 c-32 -33 -31 -42 18 -136 l30 -60 8 95 c10 137 -1 158
-56 101z"/>
<path d="M3303 5413 c-50 -69 -76 -171 -59 -238 11 -44 23 -19 51 102 14 61
29 123 35 137 13 34 -1 33 -27 -1z"/>
<path d="M7047 5165 c-29 -28 -41 -89 -42 -200 0 -116 13 -187 50 -270 l23
-50 11 29 c6 16 14 79 18 140 5 106 25 187 41 172 4 -4 12 -24 17 -44 9 -30
16 -38 39 -40 26 -3 106 24 106 36 0 2 -14 31 -32 64 -73 138 -181 214 -231
163z"/>
<path d="M7243 4828 c-41 -44 -66 -117 -67 -198 -1 -91 15 -135 58 -156 17 -9
45 -32 62 -51 23 -26 37 -34 49 -29 15 5 17 15 11 59 -3 29 -15 80 -27 113
-20 57 -22 95 -16 229 2 47 0 50 -23 53 -17 2 -33 -5 -47 -20z"/>
<path d="M8389 4438 c-52 -63 -114 -180 -126 -240 l-6 -32 34 24 c82 58 170
134 189 165 11 18 20 48 20 66 0 38 -23 79 -45 79 -7 0 -37 -28 -66 -62z"/>
<path d="M8627 4488 c-27 -21 -48 -83 -38 -111 14 -37 42 -43 64 -13 10 13 34
30 55 37 52 16 75 38 60 56 -32 39 -108 55 -141 31z"/>
<path d="M3196 4462 c-7 -22 9 -159 25 -213 12 -38 54 -88 65 -76 3 3 -4 57
-16 119 -32 159 -58 221 -74 170z"/>
<path d="M7190 4110 c0 -13 66 -69 95 -80 16 -6 40 -9 52 -5 31 7 74 -16 107
-60 16 -20 30 -35 32 -32 8 7 -18 122 -32 144 -15 24 -43 29 -176 36 -43 2
-78 1 -78 -3z"/>
<path d="M2745 4013 l-70 -35 -123 6 c-124 6 -162 -1 -162 -27 0 -15 56 -70
112 -112 37 -27 38 -27 65 -9 90 58 278 214 258 213 -5 0 -41 -16 -80 -36z"/>
<path d="M3340 4013 c-23 -9 -60 -45 -60 -59 0 -17 25 -8 68 23 45 34 41 54
-8 36z"/>
<path d="M3058 3738 c-59 -46 -107 -86 -108 -91 -6 -20 11 -67 23 -67 8 0 56
54 106 120 51 66 91 120 89 120 -2 0 -52 -37 -110 -82z"/>
</g>
</svg>
