<?xml version="1.0" standalone="no"?>
<!DOCTYPE svg PUBLIC "-//W3C//DTD SVG 20010904//EN"
 "http://www.w3.org/TR/2001/REC-SVG-20010904/DTD/svg10.dtd">
<svg version="1.0" xmlns="http://www.w3.org/2000/svg"
 width="1280.000000pt" height="1116.000000pt" viewBox="0 0 1280.000000 1116.000000"
 preserveAspectRatio="xMidYMid meet">
<metadata>
Created by potrace 1.15, written by Peter Selinger 2001-2017
</metadata>
<g transform="translate(0.000000,1116.000000) scale(0.100000,-0.100000)"
fill="#000000" stroke="none">
<path d="M5370 11149 c402 -94 731 -201 1057 -345 1067 -472 1877 -1214 2349
-2155 212 -424 367 -927 444 -1439 45 -302 54 -457 55 -875 l0 -400 -28 -103
c-69 -253 -173 -503 -254 -610 -37 -48 -107 -111 -126 -112 -10 0 -4047 2692
-4047 2699 1 3 237 292 525 641 289 349 525 637 525 640 0 4 -2248 157 -2406
163 l-40 2 -784 -970 c-431 -533 -798 -988 -816 -1010 l-33 -41 137 -111 c75
-61 416 -336 756 -613 593 -480 620 -501 636 -483 9 10 230 262 489 561 293
335 477 539 484 535 12 -6 384 -289 1982 -1502 446 -338 1053 -799 1350 -1024
297 -226 544 -414 549 -418 35 -31 -318 -286 -569 -411 -363 -182 -744 -290
-1240 -350 -149 -18 -777 -18 -940 0 -536 59 -949 152 -1630 368 -60 20 -209
67 -330 105 -217 69 -519 159 -534 159 -4 0 -43 -52 -86 -117 -43 -64 -105
-152 -137 -196 -33 -43 -58 -80 -56 -81 25 -21 257 -163 368 -227 183 -105
631 -324 863 -423 700 -297 1383 -486 2027 -560 445 -52 928 -48 1318 10 718
106 1362 386 1915 831 78 64 132 101 140 96 11 -6 808 -548 2031 -1381 213
-145 420 -279 460 -297 141 -65 289 -98 436 -98 169 0 301 45 420 144 150 125
210 401 135 624 -48 146 -107 222 -250 330 -252 189 -1389 943 -2362 1567 -35
22 -63 41 -63 43 0 1 20 45 44 96 159 338 266 789 307 1284 17 207 6 695 -20
915 -80 671 -286 1360 -599 2010 -141 292 -438 678 -801 1040 -415 415 -825
714 -1321 964 -240 122 -408 192 -660 277 -375 125 -691 193 -1100 234 -189
19 -639 30 -570 14z"/>
<path d="M3460 4519 c-89 -15 -225 -88 -308 -165 -84 -77 -168 -182 -156 -193
12 -10 876 -270 986 -296 26 -7 28 -4 50 67 18 57 23 97 23 183 0 105 -2 114
-33 177 -40 81 -82 119 -186 169 -125 60 -248 79 -376 58z"/>
<path d="M2474 3377 c-180 -241 -319 -402 -509 -593 -202 -203 -267 -259 -761
-655 -744 -596 -910 -745 -1028 -922 -124 -186 -169 -325 -170 -527 -1 -158
19 -244 84 -369 62 -118 100 -155 205 -200 340 -145 669 -146 892 -2 95 61
148 123 353 407 883 1225 1596 2161 1841 2418 85 89 98 107 82 113 -10 3 -63
26 -118 50 -196 87 -375 192 -740 435 -6 3 -64 -65 -131 -155z"/>
</g>
</svg>
